<svg width="223" height="263" viewBox="0 0 223 263" fill="none" xmlns="http://www.w3.org/2000/svg">
<path d="M24.7461 36.6636C22.3387 41.5514 19.9036 46.4391 17.4962 51.3269C27.4578 64.6646 37.4195 77.9747 47.3811 91.3125C49.9545 87.4188 52.5003 83.4424 55.0737 79.4383C61.1337 69.9389 66.917 60.5501 72.4512 51.244C70.5696 46.4667 68.6602 41.6618 66.7786 36.8846C65.5611 36.2494 64.3435 35.6419 63.126 35.0068C51.3381 35.0344 39.5502 35.062 27.7899 35.0896C26.7384 35.6419 25.7422 36.1666 24.7461 36.6636Z" fill="white"/>
<path d="M17.8283 51.5478C19.9313 46.9362 22.0897 42.3522 24.3034 37.7959C24.5247 37.3264 23.8329 36.8846 23.5839 37.3816C21.3702 41.938 19.2118 46.522 17.1088 51.1336C16.8874 51.603 17.6069 52.0449 17.8283 51.5478Z" fill="black"/>
<path d="M17.2748 52.0448C27.0151 65.3826 36.9491 78.5546 47.0767 91.6162C47.4088 92.0305 47.9899 91.4505 47.6578 91.0363C37.5855 78.03 27.7069 64.9131 17.9943 51.6306C17.6899 51.2164 16.9705 51.6306 17.2748 52.0448Z" fill="black"/>
<path d="M24.4971 37.3264C25.6592 36.7189 26.7938 36.0837 27.956 35.4762C28.4264 35.2277 28.0113 34.5097 27.5409 34.7583C26.3787 35.3658 25.2442 36.0009 24.082 36.6084C23.5839 36.8846 24.0266 37.5749 24.4971 37.3264Z" fill="black"/>
<path d="M28.6477 35.5314C37.2811 35.5314 45.9422 35.5314 54.5756 35.5314C55.1014 35.5314 55.1014 34.703 54.5756 34.703C45.9422 34.703 37.2811 34.703 28.6477 34.703C28.122 34.703 28.122 35.5314 28.6477 35.5314Z" fill="black"/>
<path d="M72.8387 51.1611C71.0954 46.5496 69.2967 41.9932 67.4428 37.4092C67.2491 36.9122 66.4466 37.1331 66.6403 37.6301C68.4943 42.1865 70.2929 46.7705 72.0362 51.3821C72.2299 51.8791 73.0324 51.6582 72.8387 51.1611Z" fill="black"/>
<path d="M71.9255 51.5754C63.8178 64.8303 55.5441 78.0024 47.1044 91.064C46.8 91.5058 47.5195 91.92 47.8239 91.4782C56.2636 78.4166 64.5373 65.2721 72.6449 51.9896C72.9216 51.5478 72.2022 51.106 71.9255 51.5754Z" fill="black"/>
<path d="M66.9447 36.5533C65.9762 35.9457 65.0077 35.3106 64.0392 34.7031C63.5964 34.4269 63.1814 35.1173 63.6241 35.4211C64.5926 36.0286 65.5611 36.6637 66.5296 37.2712C67 37.575 67.4151 36.857 66.9447 36.5533Z" fill="black"/>
<path d="M63.0984 34.6202C55.8762 34.6202 48.654 34.6202 41.4595 34.6202C40.9337 34.6202 40.9337 35.4487 41.4595 35.4487C48.6817 35.4487 55.9039 35.4487 63.0984 35.4487C63.6241 35.4487 63.6241 34.6202 63.0984 34.6202Z" fill="black"/>
<path d="M18.1605 51.962C23.1136 49.8357 28.0667 47.7094 33.0199 45.5831C33.518 45.3622 33.0752 44.6718 32.6048 44.8651C27.6517 46.9914 22.6985 49.1177 17.7454 51.244C17.275 51.465 17.69 52.1829 18.1605 51.962Z" fill="black"/>
<path d="M24.6354 37.0779C27.6792 37.5473 30.6677 38.2101 33.6285 39.0385C34.1542 39.1766 34.3756 38.3758 33.8499 38.2377C30.889 37.3816 27.9006 36.7465 24.8567 36.2771C24.331 36.1942 24.0819 36.995 24.6354 37.0779Z" fill="black"/>
<path d="M33.4071 38.9005C34.0712 40.9716 34.6523 43.0426 35.1504 45.1689C35.2611 45.6936 36.0636 45.4727 35.9529 44.948C35.4548 42.8217 34.8737 40.7506 34.2096 38.6796C34.0436 38.1825 33.2411 38.3758 33.4071 38.9005Z" fill="black"/>
<path d="M34.6801 38.9833C42.096 38.9833 49.4842 38.9833 56.9001 38.9833C57.4258 38.9833 57.4258 38.1548 56.9001 38.1548C49.4842 38.1548 42.096 38.1548 34.6801 38.1548C34.1543 38.1548 34.1543 38.9833 34.6801 38.9833Z" fill="black"/>
<path d="M56.5402 39.149C56.2635 40.6678 55.9868 42.2142 55.7101 43.733C55.6271 44.2577 56.4296 44.4786 56.5126 43.9539C56.7893 42.4351 57.066 40.8887 57.3427 39.3699C57.4257 38.8452 56.6233 38.6243 56.5402 39.149Z" fill="black"/>
<path d="M35.5932 45.2241C42.0682 45.2241 48.5433 45.2241 55.046 45.2241C55.5718 45.2241 55.5718 44.3956 55.046 44.3956C48.571 44.3956 42.0959 44.3956 35.5932 44.3956C35.0674 44.3956 35.0674 45.2241 35.5932 45.2241Z" fill="black"/>
<path d="M57.7025 38.9833C60.7187 38.3482 63.7072 37.713 66.7233 37.0779C67.2491 36.9675 67.0277 36.1666 66.502 36.2771C63.4858 36.9122 60.4973 37.5474 57.4812 38.1825C56.9554 38.2929 57.1768 39.0938 57.7025 38.9833Z" fill="black"/>
<path d="M56.3189 44.9756C59.1137 45.4174 61.7148 46.9914 64.2606 48.1788C66.9724 49.4491 69.6565 50.7194 72.3682 51.9896C72.8387 52.2105 73.2814 51.4926 72.7833 51.2716C69.9055 49.9185 67.0554 48.5931 64.1776 47.24C61.7425 46.0802 59.2244 44.6166 56.5403 44.1748C56.0145 44.0919 55.7932 44.8927 56.3189 44.9756Z" fill="black"/>
<path d="M35.8423 46.4944C39.4395 61.2957 43.0091 76.1246 46.6064 90.9259C46.7447 91.4506 47.5195 91.2297 47.4088 90.705C43.8116 75.9037 40.242 61.0748 36.6447 46.2735C36.5064 45.7488 35.7039 45.9697 35.8423 46.4944Z" fill="black"/>
<path d="M55.1567 47.4885C51.7808 61.7375 48.986 76.1522 46.8277 90.6498C46.7447 91.1744 47.5471 91.3954 47.6301 90.8707C49.7885 76.3731 52.5833 61.986 55.9592 47.7094C56.0975 47.1847 55.2951 46.9638 55.1567 47.4885Z" fill="black"/>
<path d="M55.4335 19.8466C56.6787 16.6709 57.3704 13.3296 57.4811 9.90541C57.5088 9.38073 56.6787 9.38073 56.651 9.90541C56.5403 13.2467 55.8485 16.5052 54.631 19.6257C54.4373 20.1227 55.2398 20.316 55.4335 19.8466Z" fill="black"/>
<path d="M61.106 20.3988C63.7625 17.3888 66.751 14.7378 70.0992 12.5011C70.5419 12.1973 70.1269 11.4794 69.6841 11.7831C66.2806 14.0475 63.209 16.7537 60.5249 19.8189C60.1652 20.2055 60.7463 20.7854 61.106 20.3988Z" fill="black"/>
<path d="M66.5573 25.5075C69.9885 24.4858 73.5304 24.0992 77.1 24.3753C77.6258 24.4029 77.6258 23.5745 77.1 23.5469C73.4474 23.2707 69.8502 23.6573 66.3359 24.7067C65.8378 24.8724 66.0315 25.6732 66.5573 25.5075Z" fill="black"/>
<path d="M8.25407 6.14979C8.58613 11.6174 5.51462 16.8366 0.58914 19.2114C0.312427 19.3495 0.340099 19.7637 0.58914 19.9294C5.09955 22.6356 7.1749 27.6062 8.36476 32.4939C8.50312 33.0186 9.27791 32.7977 9.16722 32.273C7.92201 27.1643 5.70832 22.0004 1.00421 19.2114C1.00421 19.4599 1.00421 19.6808 1.00421 19.9294C6.17873 17.4165 9.44394 11.866 9.08421 6.14979C9.05654 5.62512 8.2264 5.62512 8.25407 6.14979Z" fill="#E8E8E8"/>
<path d="M8.55842 6.14979C8.1987 11.8936 11.4639 17.4441 16.6384 19.9294C16.6384 19.6808 16.6384 19.4599 16.6384 19.2114C11.9066 22.028 9.69293 27.1919 8.44773 32.3282C8.30937 32.8529 9.11185 33.0738 9.2502 32.5491C10.4401 27.6338 12.5154 22.6356 17.0535 19.9294C17.3025 19.7913 17.3302 19.3495 17.0535 19.2114C12.128 16.8365 9.02882 11.6174 9.36088 6.14979C9.41622 5.62512 8.58609 5.62512 8.55842 6.14979Z" fill="#E8E8E8"/>
<path d="M143.29 213.451C144.258 213.037 145.586 212.429 147.108 211.573C149.654 210.165 150.927 209.447 151.702 208.315C152.698 206.823 152.31 206.023 153.611 204.531C153.805 204.283 154.718 203.316 155.908 202.792C157.955 201.936 159.865 202.957 163.047 204.09C165.98 205.139 168.277 205.636 172.87 206.658C174.696 207.072 176.91 207.486 180.12 208.48C181.033 208.756 181.753 209.005 182.251 209.171C182.306 209.751 182.334 211.242 181.365 212.595C180.922 213.202 180.314 213.699 179.345 214.141C177.104 215.191 174.973 214.997 173.174 214.914C169.3 214.749 170.905 215.301 161.774 215.467C159.782 215.494 158.149 215.494 157.014 215.494C155.603 216.461 154.192 217.455 152.753 218.477C150.318 220.244 147.994 222.011 145.78 223.751C144.95 220.327 144.12 216.875 143.29 213.451Z" fill="black"/>
<path d="M131.751 178.105C129.758 179.154 129.537 179.54 122.121 185.837C110.555 195.64 109.282 196.164 98.7944 205.305C88.7497 214.031 86.8681 216.212 84.9588 219.084C80.1993 226.347 79.1478 232.422 78.8435 235.377C78.4284 239.353 77.8749 244.876 81.3892 249.239C83.6029 251.973 86.4807 253.105 87.4492 253.464C90.3547 254.569 92.7344 254.431 97.0234 254.127C102.724 253.713 107.068 252.608 108.784 252.139C110.665 251.614 115.037 250.316 120.516 247.61C125.663 245.069 127.877 243.192 134.905 238.47C138.032 236.371 142.653 233.306 148.464 229.771C148.824 227.01 148.52 224.856 148.215 223.503C147.496 220.299 146.029 218.09 144.397 215.66C143.068 213.672 141.795 212.153 140.91 211.159C142.985 209.585 145.697 207.321 148.547 204.283C150.457 202.239 153.473 198.981 155.991 194.397C159.09 188.764 162.189 183.075 160.197 179.154C157.07 172.996 142.183 172.72 131.751 178.105Z" fill="white"/>
<path opacity="0.18" d="M156.544 181.115C154.967 184.76 152.366 189.923 148.215 195.446C142.183 203.427 136.095 207.845 126.908 214.39C100.925 232.891 93.9519 237.116 94.7267 238.884C95.7782 241.286 110.416 236.978 112.547 236.343C128.098 231.759 139.554 224.69 146.721 219.526C144.895 216.737 143.068 213.948 141.242 211.187C143.483 209.585 146.583 207.044 149.488 203.261C151.093 201.19 153.528 197.987 155.105 193.154C156.71 188.349 156.766 184.069 156.544 181.115Z" fill="#9B9797"/>
<path d="M131.64 178.077C121.789 185.395 112.187 193.072 102.945 201.107C98.5176 204.946 94.0902 208.784 89.9396 212.899C86.2593 216.544 82.8281 220.576 80.7527 225.38C78.5944 230.351 77.9856 236.095 78.5114 241.48C78.9541 245.926 80.5867 250.399 84.6544 252.719C88.9157 255.121 94.2839 254.873 98.9881 254.376C104.771 253.796 110.472 252.387 115.867 250.206C127.904 245.318 137.34 236.178 148.713 230.13C149.184 229.882 148.769 229.164 148.298 229.412C138.807 234.466 130.727 241.756 121.208 246.809C116.227 249.46 110.859 251.393 105.325 252.581C100.206 253.658 94.45 254.486 89.2478 253.492C86.8127 253.022 84.4607 252.028 82.7174 250.206C81.0294 248.411 80.1163 246.064 79.6459 243.661C78.622 238.442 79.0925 232.533 80.8081 227.507C82.5237 222.481 85.8719 218.256 89.5245 214.5C93.3155 210.607 97.4661 207.017 101.534 203.455C111.357 194.839 121.54 186.61 132.055 178.823C132.47 178.491 132.083 177.773 131.64 178.077Z" fill="black"/>
<path d="M104.522 234.686C113.598 231.179 121.817 225.933 129.62 220.189C133.466 217.372 137.257 214.445 141.021 211.518C144.729 208.618 148.27 205.553 151.148 201.825C151.48 201.411 150.761 200.997 150.429 201.411C147.496 205.222 143.815 208.287 140.052 211.242C136.344 214.141 132.609 217.013 128.79 219.802C121.153 225.38 113.156 230.517 104.301 233.913C103.803 234.079 104.024 234.88 104.522 234.686Z" fill="black"/>
<path d="M140.606 211.435C145.946 215.909 148.769 222.84 148.021 229.771C147.966 230.296 148.796 230.296 148.852 229.771C149.599 222.647 146.666 215.467 141.187 210.855C140.799 210.496 140.218 211.076 140.606 211.435Z" fill="black"/>
<path d="M147.966 222.067C149.543 221.597 150.927 220.272 152.255 219.333C153.915 218.173 155.548 217.013 157.208 215.853C157.651 215.55 157.236 214.832 156.793 215.135C155.299 216.185 153.777 217.262 152.283 218.311C150.899 219.278 149.377 220.769 147.745 221.266C147.219 221.404 147.44 222.205 147.966 222.067Z" fill="black"/>
<path d="M143.4 213.837C146.527 212.54 149.405 210.772 152.006 208.591C152.421 208.232 151.812 207.652 151.425 208.011C148.962 210.11 146.195 211.794 143.207 213.037C142.708 213.258 142.93 214.058 143.4 213.837Z" fill="black"/>
<path d="M151.702 208.232C152.227 208.232 152.227 207.403 151.702 207.403C151.176 207.403 151.176 208.232 151.702 208.232Z" fill="black"/>
<path d="M152.698 207.238C153.168 206.133 153.666 204.918 154.552 204.062C155.742 202.902 157.181 203.068 158.702 203.399C161.525 204.034 164.292 204.918 167.059 205.719C169.633 206.437 172.206 207.072 174.862 207.376C176.412 207.541 177.713 207.735 179.096 208.425C180.12 208.922 181.005 209.419 182.14 209.53C182.666 209.585 182.666 208.757 182.14 208.701C180.618 208.563 179.428 207.514 177.989 207.044C176.55 206.575 174.945 206.603 173.451 206.354C170.186 205.829 167.004 204.835 163.849 203.896C162.3 203.455 160.75 203.013 159.173 202.654C158.011 202.405 156.793 202.101 155.631 202.46C153.611 203.068 152.642 205.222 151.895 207.017C151.702 207.514 152.504 207.735 152.698 207.238Z" fill="black"/>
<path d="M157.098 216.461C163.019 215.577 168.885 215.439 174.862 215.329C176.938 215.301 179.151 215.053 180.812 213.699C182.223 212.54 183.025 210.855 182.638 209.06C182.527 208.536 181.725 208.756 181.836 209.281C182.361 211.794 180.092 213.644 177.851 214.197C175.554 214.749 173.064 214.473 170.712 214.528C166.063 214.611 161.47 214.997 156.876 215.688C156.35 215.743 156.599 216.544 157.098 216.461Z" fill="black"/>
<path d="M178.1 210.965C180.148 209.502 182.223 208.038 184.271 206.575C184.409 205.636 184.852 203.592 186.54 201.853C187.038 201.328 188.2 200.113 189.943 199.782C191.77 199.423 193.181 200.251 194.758 200.969C197.304 202.129 199.766 202.571 204.637 203.51C208.483 204.228 210.42 204.587 213.187 204.448C216.95 204.228 219.634 203.233 221.239 204.807C221.405 204.973 222.097 205.719 222.042 206.63C221.959 207.79 220.714 208.535 219.717 209.115C215.373 211.601 212.938 212.319 212.938 212.319C206.795 214.113 203.696 215.025 201.039 215.246C198.881 215.411 195.809 215.494 192.102 214.914C191.022 218.615 187.757 220.989 184.686 220.796C180.729 220.548 177.076 216.102 178.1 210.965Z" fill="black"/>
<path d="M138.364 186.554C138.973 184.704 140.107 182.357 142.238 181.584C143.622 181.087 144.894 181.418 145.31 181.529C147.883 182.164 153.168 181.252 163.711 179.457C168.941 178.574 175.554 177.276 183.164 175.343C183.191 176.751 183.164 178.601 183.081 180.755C182.887 185.588 182.389 189.233 182.278 190.089C181.808 193.513 180.978 199.202 178.46 206.105C177.823 207.873 177.187 209.336 176.744 210.33C177.823 210.827 178.985 211.49 180.12 212.429C184.796 216.157 186.152 221.431 186.595 223.668C185.931 224.469 184.935 225.656 183.662 227.009C178.515 232.477 173.755 235.542 164.679 241.148C159.09 244.6 154.994 247.113 148.436 250.979C140.467 255.673 134.02 259.318 125.995 261.61C124.003 262.19 120.848 262.963 116.864 262.549C114.927 262.356 111.44 261.997 108.092 259.567C103.803 256.474 102.447 251.945 101.893 249.957C100.648 245.511 101.119 241.341 102.281 237.006C103.083 233.968 105.989 223.889 116.089 212.539C118.109 210.275 123.864 205.166 135.32 194.949C138.087 192.491 140.356 190.476 141.878 189.15C140.716 188.266 139.554 187.41 138.364 186.554Z" fill="white"/>
<path opacity="0.18" d="M175.997 178.905C175.36 181.335 174.337 184.842 172.787 188.957C158.647 226.347 127.046 242.501 129.62 246.533C131.502 249.515 149.543 242.087 162.549 234.272C172.289 228.418 179.539 222.149 184.381 217.427C183.606 216.295 182.417 214.749 180.618 213.285C178.875 211.877 177.214 211.021 175.969 210.496C176.827 209.253 177.962 207.376 178.93 204.973C179.566 203.427 180.12 201.77 180.839 198.401C182.002 193.071 182.472 188.846 182.61 187.521C182.942 184.345 183.247 180.231 183.191 175.37C180.784 176.53 178.404 177.718 175.997 178.905Z" fill="#9B9797"/>
<path d="M182.776 175.343C182.804 180.562 182.472 185.781 181.753 190.973C181.088 195.639 180.258 200.444 178.543 204.863C176.689 209.64 173.506 213.119 169.66 216.405C165.731 219.747 161.774 223.033 157.817 226.319C153.279 230.102 148.713 233.858 144.175 237.641C143.76 237.972 144.341 238.552 144.756 238.221C153.085 231.317 161.414 224.441 169.688 217.455C173.34 214.362 176.661 211.159 178.653 206.713C180.59 202.405 181.531 197.683 182.278 193.044C183.219 187.189 183.662 181.28 183.606 175.343C183.606 174.791 182.776 174.791 182.776 175.343Z" fill="black"/>
<path d="M138.834 187.328C139.969 187.935 141.104 188.543 142.266 189.15C142.736 189.399 143.151 188.681 142.681 188.432C141.546 187.825 140.412 187.217 139.25 186.61C138.779 186.361 138.364 187.079 138.834 187.328Z" fill="black"/>
<path d="M142.266 188.819C132.415 196.827 122.066 204.752 113.847 214.473C106.764 222.84 100.925 233.444 100.953 244.683C100.953 249.626 102.309 254.79 105.961 258.297C109.614 261.831 114.899 263.212 119.88 262.963C125.967 262.66 131.751 260.257 137.174 257.606C142.985 254.762 148.492 251.393 154.026 248.052C165.426 241.148 178.155 234.714 186.706 224.193C187.038 223.779 186.457 223.199 186.125 223.613C178.958 232.45 168.885 238.11 159.283 243.909C153.998 247.113 148.768 250.371 143.373 253.409C138.087 256.391 132.581 259.235 126.742 260.92C121.263 262.494 115.148 262.825 109.973 260.092C104.993 257.496 102.447 252.47 101.921 247.002C100.897 235.957 106.459 224.966 113.183 216.571C121.568 206.105 132.525 197.766 142.874 189.371C143.262 189.067 142.681 188.487 142.266 188.819Z" fill="black"/>
<path d="M176.55 210.662C181.753 213.147 185.377 218.062 186.235 223.751C186.318 224.276 187.121 224.055 187.038 223.53C186.18 217.648 182.361 212.484 176.993 209.944C176.495 209.723 176.08 210.441 176.55 210.662Z" fill="black"/>
<path d="M178.211 211.38C179.317 210.938 180.203 210.192 181.144 209.474C182.251 208.618 183.385 207.79 184.492 206.934C184.907 206.602 184.492 205.884 184.077 206.216C183.081 206.961 182.085 207.707 181.088 208.48C180.12 209.226 179.151 210.137 177.989 210.579C177.519 210.772 177.713 211.573 178.211 211.38Z" fill="black"/>
<path d="M184.907 206.602C185.46 204.973 186.125 203.371 187.01 201.88C188.228 199.837 190.054 200.058 192.102 200.582C195.284 201.383 198.328 202.598 201.537 203.316C207.763 204.697 214.156 205.166 220.52 204.752C221.046 204.725 221.046 203.896 220.52 203.924C213.021 204.421 205.467 203.648 198.217 201.604C196.474 201.107 194.786 200.472 193.042 199.975C191.714 199.588 190.137 199.146 188.753 199.423C187.508 199.671 186.789 200.61 186.18 201.659C185.322 203.151 184.658 204.752 184.105 206.381C183.939 206.878 184.741 207.099 184.907 206.602Z" fill="black"/>
<path d="M186.097 219.94C188.172 218.366 190.22 216.792 192.295 215.218C192.71 214.887 192.295 214.169 191.88 214.5C189.805 216.074 187.757 217.648 185.682 219.222C185.267 219.553 185.682 220.271 186.097 219.94Z" fill="black"/>
<path d="M192.268 215.025C199.019 216.488 205.909 215.384 212.302 212.954C215.207 211.849 218.528 210.606 221.018 208.729C222.761 207.431 223.01 204.946 220.714 204.062C220.215 203.869 219.994 204.669 220.492 204.863C221.737 205.332 221.876 206.685 221.018 207.624C220.603 208.094 220.022 208.397 219.468 208.729C218.334 209.364 217.172 209.944 216.009 210.496C213.547 211.656 211.001 212.65 208.372 213.423C203.198 214.914 197.774 215.411 192.461 214.252C191.963 214.113 191.742 214.914 192.268 215.025Z" fill="black"/>
<path d="M120.156 95.7586C124.362 92.2792 130.644 88.0818 139.028 85.5965C142.957 84.4367 147.883 83.0007 154.413 83.553C164.43 84.4091 171.32 89.3244 173.756 91.1194C177.574 93.9084 180.175 96.8631 181.78 98.9342C182.085 118.292 182.5 137.677 183.025 157.035C183.191 163 183.357 168.992 183.551 174.957C179.622 177.387 174.115 180.12 167.142 181.722C150.816 185.45 137.23 180.479 131.723 178.077C131.695 173.189 131.391 165.844 129.897 157.035C127.462 142.565 123.671 136.738 121.291 124.284C120.101 117.85 118.967 108.185 120.156 95.7586Z" fill="#0A3871"/>
<path d="M170.186 100.536C168.83 102.027 168.581 103.711 168.664 110.173C168.719 116.966 169.079 121.605 169.301 126.99C169.467 130.884 169.605 133.977 169.522 138.008C169.439 143.089 169.107 147.259 168.802 150.048C166.091 153.086 163.683 155.461 161.885 157.173C157.845 161.011 153.445 165.153 146.942 169.047C144.369 170.566 142.155 171.67 140.661 172.361C139.305 172.14 137.783 171.808 136.123 171.394C132.193 170.4 130.561 169.516 127.6 169.516C126.715 169.516 123.92 169.516 123.643 170.51C123.394 171.339 124.944 172.637 126.161 173.272C127.296 173.852 127.794 173.686 128.928 174.211C130.201 174.818 131.031 175.702 131.529 176.365C131.004 177.11 130.201 178.242 129.316 179.706C128.292 181.418 128.07 182.081 126.881 184.124C125.635 186.278 124.999 187.355 124.446 187.907C123.588 188.708 123.062 188.874 119.216 190.586C115.397 192.298 114.733 192.685 114.733 193.154C114.733 193.624 115.48 193.734 118.441 195.004C120.848 196.026 121.07 196.247 122.315 196.606C123.864 197.048 124.805 197.324 125.94 197.075C127.738 196.716 128.901 195.363 129.399 194.645C129.648 194.866 130.256 195.336 131.059 195.363C131.695 195.363 132.221 195.115 132.636 194.783C134.379 193.541 135.237 191.249 136.953 188.681C137.257 188.239 138.336 186.61 140.08 184.787C141.159 183.627 142.155 182.771 142.875 182.191C143.843 181.97 145.282 181.639 146.998 181.142C153.666 179.237 158.481 176.945 162.521 175.012C164.873 173.879 167.53 172.388 172.815 169.433C177.408 166.865 179.788 165.429 181.891 162.613C182.112 162.309 183.247 160.79 184.243 158.553C184.547 157.863 185.627 155.405 186.208 151.098C186.484 149.192 186.484 148.143 186.512 142.178C186.567 134.584 186.567 135.495 186.567 134.722C186.54 123.594 185.959 124.588 185.765 114.37C185.737 113.404 185.71 110.781 184.907 107.467C184.049 103.877 182.97 102.275 182.361 101.475C181.587 100.453 180.646 99.2378 179.041 98.5474C176.108 97.2495 172.206 98.2989 170.186 100.536Z" fill="white"/>
<path opacity="0.25" d="M179.068 98.5198C179.733 100.701 180.535 103.849 181.088 107.66C181.753 112.272 182.002 117.353 180.507 130.635C179.262 141.736 178.653 147.287 177.048 152.478C174.752 159.879 173.091 165.264 168.028 169.516C164.762 172.25 161.193 173.52 154.026 176.033C148.768 177.883 144.258 178.988 141.159 179.678C138.945 182.661 135.652 186.444 130.976 190.034C127.323 192.85 123.809 194.783 120.904 196.109C121.319 196.385 123.034 197.49 125.359 197.186C128.07 196.827 129.537 194.894 129.786 194.535C130.312 194.922 131.087 195.336 131.944 195.198C133.715 194.922 134.656 192.409 135.127 191.276C136.15 188.929 138.198 185.698 142.791 182.164C145.835 181.363 149.958 180.148 154.745 178.325C161.414 175.757 165.897 173.272 170.712 170.593C178.432 166.285 180.175 164.518 181.448 162.806C183.773 159.686 184.741 156.482 185.156 155.074C185.903 152.561 186.042 149.744 186.318 144.249C186.512 140.162 186.512 137.014 186.512 134.639C186.512 130.552 186.429 127.515 186.346 124.892C186.235 121.081 186.014 116.607 185.46 111.25C185.045 107.356 184.741 105.81 183.856 104.07C182.5 101.309 180.48 99.5416 179.068 98.5198Z" fill="#9B9797"/>
<path d="M169.771 100.425C168.332 104.015 168.166 107.881 168.249 111.719C168.332 115.944 168.553 120.142 168.747 124.367C169.135 132.927 169.411 141.515 168.387 150.048C168.332 150.573 169.162 150.573 169.218 150.048C170.214 141.709 169.992 133.286 169.605 124.919C169.411 120.777 169.19 116.635 169.079 112.465C168.968 108.461 169.051 104.429 170.573 100.646C170.767 100.149 169.965 99.9281 169.771 100.425Z" fill="black"/>
<path d="M169.992 149.33C167.447 150.739 165.399 152.782 163.434 154.908C161.304 157.2 159.173 159.437 156.793 161.481C151.923 165.706 146.444 169.185 140.578 171.891C140.08 172.112 140.522 172.83 140.993 172.609C146.638 170.013 151.923 166.7 156.655 162.696C159.007 160.735 161.165 158.581 163.241 156.344C165.399 153.997 167.557 151.622 170.38 150.076C170.878 149.772 170.463 149.054 169.992 149.33Z" fill="black"/>
<path d="M140.771 171.946C137.728 171.311 134.656 170.648 131.612 169.958C130.09 169.627 128.541 169.213 126.991 168.936C126.023 168.771 124.999 168.688 124.141 169.24C122.813 170.096 122.813 171.67 124.003 172.609C124.861 173.299 125.967 173.603 126.991 173.935C128.652 174.459 130.063 175.122 131.142 176.53C131.474 176.945 132.193 176.53 131.861 176.116C130.893 174.873 129.731 173.99 128.236 173.465C127.213 173.106 126.078 172.885 125.137 172.361C124.473 172.002 123.615 171.449 124.113 170.455C124.584 169.516 125.774 169.599 126.632 169.737C128.928 170.069 131.225 170.731 133.522 171.256C135.874 171.781 138.226 172.278 140.578 172.775C141.076 172.858 141.297 172.057 140.771 171.946Z" fill="black"/>
<path d="M130.478 176.669C129.26 178.905 128.015 181.114 126.798 183.351C126.189 184.428 125.663 185.588 124.944 186.637C124.196 187.714 123.2 188.267 122.038 188.819C119.852 189.841 117.5 190.669 115.397 191.856C114.456 192.409 113.847 193.403 114.65 194.369C115.646 195.557 117.611 195.087 118.939 194.866C120.765 194.563 122.508 193.955 124.169 193.182C127.628 191.525 130.561 188.929 132.664 185.726C132.968 185.284 132.249 184.87 131.944 185.312C130.09 188.184 127.517 190.503 124.501 192.105C123.062 192.851 121.512 193.458 119.935 193.817C119.05 194.038 118.109 194.231 117.168 194.259C116.31 194.314 116.089 194.425 115.674 193.569C115.148 193.071 115.203 192.74 115.812 192.574C116.006 192.492 116.172 192.409 116.365 192.326C118.136 191.497 119.935 190.697 121.706 189.868C123.09 189.233 124.445 188.681 125.386 187.438C126.493 185.975 127.268 184.235 128.153 182.633C129.177 180.783 130.201 178.933 131.197 177.11C131.446 176.613 130.727 176.199 130.478 176.669Z" fill="black"/>
<path d="M143.124 182.716C150.512 180.645 157.679 177.884 164.541 174.459C167.945 172.747 171.265 170.897 174.503 168.854C177.408 167.031 180.48 165.181 182.555 162.392C182.859 161.95 182.14 161.536 181.836 161.978C179.677 164.905 176.301 166.81 173.258 168.688C170.158 170.593 166.948 172.361 163.683 173.99C157.015 177.276 150.069 179.927 142.902 181.943C142.404 182.053 142.625 182.854 143.124 182.716Z" fill="black"/>
<path d="M170.324 101.171C172.621 96.6697 178.515 97.6914 181.42 100.895C184.907 104.761 185.073 110.422 185.46 115.337C186.291 126.079 186.457 136.904 185.793 147.646C185.461 152.865 184.686 158.388 181.199 162.53C180.867 162.944 181.448 163.524 181.78 163.11C184.907 159.354 185.986 154.605 186.429 149.855C187.01 143.78 187.01 137.622 186.955 131.519C186.899 125.14 186.595 118.734 186.014 112.382C185.571 107.605 184.713 102.331 180.756 99.155C177.381 96.4488 171.736 96.5316 169.577 100.757C169.356 101.226 170.075 101.64 170.324 101.171Z" fill="black"/>
<path d="M118.192 195.336C120.212 196.247 122.647 197.628 124.944 197.628C127.157 197.6 128.79 195.778 130.284 194.397C134.573 190.42 138.862 186.444 143.151 182.495C143.539 182.136 142.958 181.556 142.57 181.915C138.945 185.284 135.32 188.625 131.695 191.994C130.09 193.458 128.43 195.557 126.41 196.468C124.03 197.545 120.765 195.612 118.635 194.645C118.136 194.397 117.721 195.115 118.192 195.336Z" fill="black"/>
<path d="M129.454 194.756C130.367 196.468 132.387 195.778 133.411 194.59C135.431 192.215 137.008 189.344 138.724 186.775C139.028 186.334 138.309 185.919 138.004 186.361C136.925 187.963 135.846 189.565 134.767 191.166C134.158 192.05 131.474 196.827 130.173 194.342C129.924 193.872 129.205 194.287 129.454 194.756Z" fill="black"/>
<path d="M123.034 193.403C123.864 193.845 124.888 194.287 125.801 193.845C126.272 193.596 126.466 193.21 126.687 192.768C127.074 192.022 127.462 191.442 128.181 190.973C128.624 190.669 128.209 189.951 127.766 190.255C127.102 190.697 126.549 191.249 126.161 191.967C125.884 192.492 125.718 193.127 124.999 193.182C124.473 193.237 123.892 192.906 123.449 192.685C123.007 192.464 122.564 193.154 123.034 193.403Z" fill="black"/>
<path d="M117.362 35.6143C116.393 37.5749 115.425 40.861 115.12 41.9379C114.678 43.4844 113.681 47.1018 113.128 51.9067C112.824 54.5577 112.492 57.4572 112.768 61.2956C112.907 63.1182 113.1 65.9901 114.179 69.5523C114.899 71.9824 115.95 75.4894 118.801 79.0793C121.291 82.1997 124.141 84.1603 126.41 85.3477C127.849 85.3754 129.592 85.2925 131.529 84.9335C135.016 84.2708 137.728 82.9729 139.554 81.9236C139.803 83.3319 140.135 84.8231 140.55 86.3695C141.408 89.5727 142.459 92.3894 143.511 94.8195C144.645 94.6262 146.001 94.2948 147.44 93.6321C152.006 91.5058 154.192 87.5845 154.967 85.9553C154.552 84.3536 154.22 82.6139 153.915 80.819C152.864 74.1087 153.141 68.1164 153.805 63.2562C154.386 63.4495 155.327 63.6981 156.489 63.6428C158.758 63.5048 160.307 62.2621 161.082 61.5994C161.746 61.0471 164.762 58.3685 164.652 54.392C164.624 53.4531 164.569 51.1611 162.936 49.9185C161.414 48.7863 159.367 49.2005 157.872 49.5043C156.157 49.8633 154.884 50.5812 154.109 51.0783C154.69 49.1729 155.908 44.2852 154.109 38.5966C153.722 37.3816 151.148 29.6495 143.566 26.3082C133.273 21.7242 120.904 28.5174 117.362 35.6143Z" fill="white"/>
<path opacity="0.24" d="M148.63 35.78C148.851 38.3482 149.018 42.0761 148.63 46.4944C147.44 59.8874 142.127 69.1934 140.744 71.513C138.641 75.0477 135.044 80.1839 129.288 85.2374C131.004 85.0164 132.968 84.6298 135.071 83.8843C140.855 81.8408 144.728 78.3338 146.831 76.0418C146.998 79.107 147.523 82.8349 148.768 86.9218C149.322 88.6615 149.931 90.2632 150.567 91.6991C152.034 89.7937 153.473 87.8883 154.939 85.9553C154.635 84.1604 154.358 82.255 154.164 80.2944C153.528 74.3573 153.528 68.8897 153.86 64.0295C155.105 64.0571 156.904 63.9467 158.813 63.2011C167.17 59.8874 171.929 46.7153 167.419 39.5356C167.225 39.2318 166.229 37.6854 164.181 36.3047C157.845 32.0521 149.792 35.283 148.63 35.78Z" fill="#9B9797"/>
<path d="M115.342 41.1096C114.788 39.2042 114.013 35.5591 114.816 31.0856C115.065 29.7048 115.923 25.2589 118.967 21.7519C123.422 16.6432 129.011 17.6097 136.261 15.014C140.854 13.3848 147.163 9.96057 153.556 1.89717C152.974 4.87953 152.393 7.88949 151.812 10.8718C152.808 11.148 156.157 11.866 159.588 10.1815C165.288 7.39243 165.786 0.654527 165.814 0.350769C166.506 1.89717 167.751 5.32135 167.197 9.68442C166.81 12.6668 165.731 14.9035 164.956 16.2566C165.288 16.6156 167.059 18.4382 169.107 18.162C171.597 17.8307 173.922 14.4341 173.257 10.0434C173.811 11.6727 174.475 14.3513 174.309 17.6374C174.088 21.6414 172.759 24.6514 171.874 26.2807C172.095 26.474 173.506 27.7442 175.499 27.4957C177.242 27.2748 178.736 26.0045 179.317 24.2096C179.179 26.0597 178.847 28.7383 177.768 31.8035C176.301 35.9457 175.084 36.2771 174.475 39.2318C173.506 43.871 175.997 45.445 175.333 49.5872C174.779 53.0666 172.51 55.2481 169.633 58.0372C164.403 63.0906 158.398 65.8244 153.362 67.3432C153.583 65.7968 153.832 64.2504 154.054 62.704C154.69 63.0906 155.797 63.6153 157.18 63.5601C160.003 63.4496 161.774 60.9367 162.715 59.5836C163.794 58.0648 165.593 55.4691 164.624 52.68C163.822 50.4156 161.691 49.4767 161.497 49.3939C159.007 48.3445 155.797 49.2834 153.722 51.824C152.559 47.2676 151.425 42.7388 150.263 38.1825C146.333 35.6972 142.432 33.2395 138.502 30.7542C136.565 30.3952 131.28 29.6772 125.359 32.3006C119.382 34.9516 116.338 39.4527 115.342 41.1096Z" fill="#0A3871"/>
<path d="M114.927 40.9992C112.575 49.7805 111.163 59.1142 113.322 68.0889C115.093 75.3791 119.575 83.691 127.213 86.0658C127.711 86.2315 127.932 85.4307 127.434 85.265C119.769 82.8902 115.48 74.2469 113.903 66.9567C112.049 58.3962 113.46 49.5596 115.701 41.2201C115.867 40.723 115.065 40.5021 114.927 40.9992Z" fill="black"/>
<path d="M127.821 85.9277C140.578 84.6298 151.231 75.4342 154.22 62.9525C154.33 62.4278 153.556 62.2069 153.417 62.7316C150.512 74.7991 140.246 83.829 127.821 85.0992C127.296 85.1545 127.268 85.9829 127.821 85.9277Z" fill="black"/>
<path d="M153.5 63.1734C159.201 66.6528 164.762 59.3626 165.122 54.254C165.316 51.5478 164.071 49.4767 161.387 48.7035C158.896 47.9855 156.184 48.7311 154.413 50.6089C154.054 50.9955 154.635 51.5754 154.995 51.1888C156.461 49.6147 158.675 48.9244 160.805 49.3938C161.912 49.6424 163.13 50.2499 163.766 51.244C164.458 52.321 164.375 53.8121 164.209 54.9995C163.545 59.2798 158.785 65.4102 153.915 62.4278C153.473 62.1793 153.03 62.8973 153.5 63.1734Z" fill="black"/>
<path d="M153.445 63.1182C152.366 70.7674 152.753 78.527 154.579 86.0381C154.718 86.5628 155.52 86.3419 155.382 85.8172C153.583 78.4442 153.196 70.8226 154.247 63.3391C154.303 62.8144 153.5 62.5935 153.445 63.1182Z" fill="black"/>
<path d="M139.139 82.034C139.997 86.5076 141.325 90.843 143.151 95.0404C143.373 95.5375 144.092 95.0956 143.871 94.6262C142.072 90.5117 140.772 86.2314 139.941 81.8131C139.831 81.2885 139.056 81.5094 139.139 82.034Z" fill="black"/>
<path d="M143.732 95.1509C149.073 94.2948 153.583 90.6221 155.603 85.6239C155.797 85.1268 154.995 84.9059 154.801 85.403C152.892 90.1527 148.547 93.5492 143.511 94.3501C142.985 94.4329 143.207 95.2337 143.732 95.1509Z" fill="black"/>
<path d="M139.803 83.0005C140.938 83.0557 141.712 82.2825 142.57 81.6197C143.705 80.7361 144.784 79.7972 145.78 78.8031C147.634 76.9529 149.128 74.8266 150.097 72.3965C150.29 71.8995 149.488 71.6786 149.294 72.1756C148.436 74.3295 147.108 76.2349 145.503 77.8918C144.784 78.665 144.009 79.3554 143.207 80.0457C142.321 80.7913 141.048 82.2273 139.803 82.172C139.277 82.1444 139.277 82.9728 139.803 83.0005Z" fill="black"/>
<path d="M139.858 82.5589C142.21 81.0401 144.396 79.3004 146.444 77.395C146.831 77.036 146.25 76.4285 145.863 76.8151C143.871 78.6929 141.74 80.3774 139.443 81.8685C138.973 82.1171 139.416 82.835 139.858 82.5589Z" fill="black"/>
<path d="M123.588 42.6008C122.038 49.6424 121.153 56.7946 120.959 64.0019C120.959 64.4161 121.512 64.5542 121.734 64.2228C122.813 62.5107 123.892 60.771 124.971 59.0589C125.248 58.6171 124.529 58.1753 124.252 58.6447C123.173 60.3568 122.094 62.0965 121.014 63.8086C121.263 63.8915 121.54 63.9467 121.789 64.0295C121.983 56.905 122.868 49.8081 124.39 42.8493C124.501 42.297 123.698 42.0761 123.588 42.6008Z" fill="black"/>
<path d="M124.695 74.3849C124.03 73.1423 123.588 71.8168 123.477 70.4084C123.394 69.4143 123.615 65.3826 125.497 66.9842C126.493 67.8403 126.355 69.7181 126.382 70.9607C126.382 71.5406 126.382 72.1481 126.327 72.728C126.299 73.1423 126.244 73.5565 126.161 73.9431C125.442 74.4401 124.888 74.4125 124.529 73.8879C124.169 73.5013 123.56 74.0812 123.947 74.4678C125.137 75.6828 126.687 75.738 127.019 73.8326C127.268 72.4795 127.268 71.0436 127.157 69.6905C127.074 68.6135 127.074 67.0671 126.272 66.2387C125.082 65.0236 123.394 66.1558 122.924 67.4537C122.066 69.7733 122.896 72.7004 124.003 74.7991C124.224 75.2686 124.944 74.8544 124.695 74.3849Z" fill="black"/>
<path d="M130.422 49.5319C131.253 53.4256 136.372 53.7293 137.894 50.1395C138.087 49.6424 137.285 49.4215 137.091 49.9185C135.846 52.8457 131.861 52.2934 131.225 49.311C131.114 48.814 130.312 49.0073 130.422 49.5319Z" fill="black"/>
<path d="M128.79 39.9498C129.841 37.6025 132.553 36.4703 135.044 36.995C137.617 37.5473 139.582 39.5355 140.855 41.7171C141.131 42.1865 141.851 41.7723 141.574 41.3029C140.107 38.79 137.783 36.5532 134.795 36.1114C132.11 35.7248 129.233 36.995 128.07 39.5079C127.849 40.0326 128.569 40.4468 128.79 39.9498Z" fill="black"/>
<path d="M112.575 40.8611C113.322 39.3147 114.622 37.6302 116.532 37.6578C118.358 37.6855 119.686 39.2871 120.599 40.6954C120.876 41.1373 121.595 40.723 121.319 40.2812C120.267 38.5967 118.69 36.857 116.532 36.8294C114.318 36.8018 112.768 38.6244 111.883 40.4469C111.634 40.9163 112.353 41.3306 112.575 40.8611Z" fill="black"/>
<path d="M117.472 53.3704C117.961 53.3704 118.358 51.553 118.358 49.3111C118.358 47.0692 117.961 45.2518 117.472 45.2518C116.983 45.2518 116.587 47.0692 116.587 49.3111C116.587 51.553 116.983 53.3704 117.472 53.3704Z" fill="black"/>
<path d="M120.018 97.0563C119.935 98.0781 119.824 99.4864 119.769 101.116C119.52 106.694 119.741 110.919 119.824 112.051C120.046 115.724 120.544 120.529 121.706 126.107C120.599 127.377 118.939 129.255 116.808 131.464C112.768 135.689 110.693 137.843 107.372 140.08C103.664 142.565 101.091 143.338 99.7074 143.697C97.9641 144.111 96.3039 144.498 94.2839 144.056C90.991 143.31 89.0263 140.88 88.3069 139.941C86.4806 137.622 86.0655 135.357 85.3184 130.939C84.765 127.708 84.6543 125.251 84.4882 120.501C84.4052 118.237 84.2945 115.475 84.3499 111.775C84.4052 107.605 84.6266 102.662 85.2354 97.1392C85.5121 94.6539 85.8995 91.5887 86.5082 88.1093C86.0378 87.4465 85.5398 86.7838 85.014 86.0934C84.4606 85.3755 83.9348 84.6851 83.3814 83.9947C81.9702 85.1822 80.5866 86.3972 79.1754 87.5846C78.8156 87.7227 78.1792 87.9436 77.4044 87.8608C75.9378 87.7227 75.08 86.701 74.7757 86.3696C73.4198 84.8232 73.6135 82.8626 73.6688 82.476C75.5781 80.4049 77.4874 78.3614 79.4244 76.2903C79.4521 75.1029 79.6181 73.5565 80.0885 71.8444C80.4483 70.5742 80.891 69.5248 81.3061 68.6412C81.6658 67.9232 82.1639 67.1224 82.8003 66.3216C83.9348 64.8304 85.1524 63.781 86.1485 63.0631C85.3461 63.4221 85.1524 63.4221 85.097 63.3668C84.9587 63.1459 86.2592 61.5167 88.0855 61.351C89.1093 61.2405 89.9118 61.6271 90.4652 61.8757C91.323 62.2899 91.9041 62.8145 92.2639 63.2011C93.9795 61.7376 95.6951 60.274 97.4107 58.8381C98.0195 59.1971 98.6282 59.6113 99.237 60.0255C100.648 60.992 101.921 61.9585 103.056 62.8974C102.641 63.4221 102.115 64.002 101.451 64.5819C100.344 65.5484 99.237 66.1283 98.3792 66.5149C98.905 66.6805 99.8458 67.0671 100.316 67.9784C100.787 68.8621 100.593 69.8286 100.316 71.0436C100.122 71.872 99.8735 72.5348 99.6798 72.9766C99.7904 74.1364 99.8458 75.7104 99.5137 77.4778C98.988 80.3773 97.7704 82.5312 96.9403 83.7738C96.9126 84.8508 96.885 86.5353 96.9403 88.6063C97.1617 97.1392 98.4069 102.137 99.2093 108.433C99.6798 112.023 100.15 117.353 100.012 124.063C100.648 123.649 101.561 122.986 102.585 122.13C105.186 119.949 106.847 117.767 109.033 114.564C111.191 111.443 112.602 109.124 114.512 106.031C115.701 104.015 117.611 100.95 120.018 97.0563Z" fill="white"/>
<path opacity="0.24" d="M94.865 71.8444C94.2839 73.1146 93.7028 74.4125 93.1217 75.738C91.4337 79.7145 90.0502 83.5252 88.9156 87.1703C88.6666 92.9141 88.5282 97.719 88.4176 101.198C88.2792 106.473 88.6113 112.769 89.22 125.361C89.4691 130.553 89.6904 133.701 92.1255 135.993C94.6713 138.367 98.2132 138.423 100.205 138.423C110.831 138.395 118.773 129.365 120.959 126.742C117.998 131.768 114.622 135.054 112.325 136.987C109.724 139.168 106.376 141.902 101.174 143.255C96.7743 144.415 94.7819 144.166 94.2562 144.056C90.4652 143.145 88.3622 139.997 87.6151 138.92C85.8165 136.241 85.2354 133.452 84.9033 127.46C84.5713 121.302 84.931 119.672 85.0417 111.195C85.1247 103.104 84.8203 100.812 85.4291 95.2061C85.7888 91.92 86.2315 89.2138 86.5913 87.3913C85.5121 86.2591 84.4329 85.1269 83.3537 84.0223C82.4406 84.8231 81.4998 85.5963 80.5589 86.3971C79.9502 86.9218 79.3137 87.4465 78.705 87.9435C78.1516 87.9988 77.3491 87.9712 76.4913 87.6122C74.2776 86.6733 72.894 83.9395 73.5858 83.0006C74.0285 82.3654 75.1907 82.8625 76.7957 82.8625C79.5628 82.8901 81.4168 81.4818 85.097 78.8308C87.6981 76.9254 90.6866 74.7991 94.865 71.8444Z" fill="#9B9797"/>
<path d="M119.658 96.8353C113.266 105.644 108.535 115.751 100.455 123.262C100.067 123.621 100.648 124.201 101.036 123.842C109.171 116.276 113.93 106.114 120.378 97.2495C120.71 96.8353 119.99 96.4211 119.658 96.8353Z" fill="black"/>
<path d="M95.8611 144.691C106.819 143.973 114.678 134.805 121.263 127.018C121.595 126.604 121.014 126.024 120.682 126.438C114.29 134.06 106.542 143.172 95.8888 143.89C95.3354 143.89 95.3354 144.719 95.8611 144.691Z" fill="black"/>
<path d="M90.6589 66.9015C90.7142 69.083 92.1531 70.9608 94.2561 71.5683C94.7819 71.7064 95.0033 70.9056 94.4775 70.7675C92.7342 70.2704 91.5444 68.6964 91.489 66.9015C91.4613 66.3768 90.6312 66.3768 90.6589 66.9015Z" fill="black"/>
<path d="M91.5167 66.6529C91.7935 64.2505 96.0825 65.9902 97.2447 66.5977C98.3792 67.1776 99.5137 67.7575 99.7628 69.1382C99.9565 70.1876 99.6244 71.2921 99.3477 72.3139C99.2093 72.8385 100.012 73.0595 100.15 72.5348C100.538 71.1541 100.953 69.58 100.372 68.2269C99.8181 66.8462 98.2962 66.2111 97.051 65.6036C95.7781 64.9961 94.3946 64.5542 92.9557 64.7199C92.3746 64.8028 91.6274 64.9408 91.157 65.3274C90.6589 65.714 90.7696 65.9902 90.6866 66.6805C90.6313 67.1776 91.4614 67.1776 91.5167 66.6529Z" fill="black"/>
<path d="M99.071 72.1482C98.988 74.2469 99.4584 76.2903 98.9603 78.389C98.4899 80.322 97.5491 82.1169 96.6083 83.8566C96.3592 84.3261 97.0787 84.7403 97.3277 84.2709C98.2962 82.4483 99.2647 80.5981 99.7628 78.6099C100.289 76.456 99.8182 74.3297 99.9012 72.1482C99.9288 71.5959 99.0987 71.5959 99.071 72.1482Z" fill="black"/>
<path d="M96.6082 83.8842C95.9718 98.4369 100.15 112.686 99.486 127.239C99.4583 127.763 100.288 127.763 100.316 127.239C100.98 112.686 96.8019 98.4369 97.4383 83.8842C97.466 83.3595 96.6359 83.3595 96.6082 83.8842Z" fill="black"/>
<path d="M83.0217 84.1879C83.8518 85.3478 84.7373 86.4523 85.7334 87.4741C86.0932 87.8607 86.6743 87.2808 86.3145 86.8942C85.3737 85.9 84.5159 84.8783 83.7411 83.7737C83.409 83.3319 82.6896 83.7461 83.0217 84.1879Z" fill="black"/>
<path d="M86.2039 87.2532C84.6266 96.2278 83.8518 105.341 83.8795 114.453C83.9072 118.982 84.1285 123.538 84.5713 128.04C84.931 131.878 85.3737 135.91 87.3937 139.279C89.22 142.344 92.4299 144.663 96.0825 144.581C96.6083 144.553 96.6083 143.725 96.0825 143.752C90.9633 143.89 87.6705 139.334 86.4806 134.86C85.1524 129.945 85.0417 124.588 84.848 119.534C84.4329 108.82 85.1801 98.0504 87.034 87.5017C87.0894 86.9494 86.2869 86.7285 86.2039 87.2532Z" fill="black"/>
<path d="M80.974 74.8543C78.3729 77.0359 75.8548 79.3278 73.4751 81.7303C73.0877 82.1169 73.6965 82.6968 74.0562 82.3102C76.4636 79.9078 78.954 77.6157 81.5551 75.4342C81.9702 75.1028 81.3891 74.5229 80.974 74.8543Z" fill="black"/>
<path d="M73.2261 82.4759C72.811 85.6792 75.2461 88.3854 78.4836 88.3578C79.0094 88.3578 79.0094 87.5293 78.4836 87.5293C75.6888 87.5569 73.6965 85.2097 74.0562 82.4759C74.1392 81.9512 73.3091 81.9512 73.2261 82.4759Z" fill="black"/>
<path d="M74.0009 82.2827C76.9063 82.3655 78.9263 84.9613 78.3176 87.7779C78.2069 88.3026 79.0094 88.5235 79.12 87.9988C79.8672 84.6023 77.4874 81.5647 74.0009 81.4542C73.4751 81.4542 73.4751 82.2827 74.0009 82.2827Z" fill="black"/>
<path d="M79.4521 87.8607C82.6066 84.9888 85.8165 82.1445 88.888 79.1898C90.2992 77.8367 91.6551 76.456 92.928 74.9648C93.6197 74.164 95.363 72.59 95.3907 71.4854C95.3907 71.3473 95.3077 71.1816 95.197 71.1264C95.1417 71.0988 95.0863 71.0712 95.0587 71.0712C94.8926 70.9883 94.6713 70.9883 94.5606 71.1264C94.5329 71.154 94.5052 71.1816 94.4776 71.2369C94.1455 71.6511 94.7266 72.231 95.0587 71.8168C95.0863 71.7892 95.114 71.7615 95.1417 71.7063C94.9756 71.7339 94.8096 71.7615 94.6436 71.7615C94.5882 71.513 94.5052 71.513 94.3945 71.7892C94.2562 71.9825 94.1178 72.1758 93.9518 72.3691C93.6198 72.7833 93.3154 73.1975 92.9556 73.6117C92.4022 74.3021 91.7934 74.9648 91.2123 75.6276C89.9948 76.953 88.7219 78.1957 87.4214 79.4107C84.5989 82.0617 81.7211 84.6298 78.871 87.2532C78.4559 87.6398 79.0647 88.2197 79.4521 87.8607Z" fill="black"/>
<path d="M79.8119 76.4007C80.0056 75.0752 80.1993 73.7498 80.393 72.4243C80.5313 71.4301 80.642 70.3256 81.1954 69.4419C82.4683 67.3985 84.2669 68.862 85.2354 70.2427C85.6505 70.8226 86.0379 71.4578 86.453 72.0377C86.6743 72.369 87.7535 73.5565 87.6151 73.9707C87.7535 73.8602 87.8919 73.7774 88.0025 73.6669C87.9472 73.6669 87.9195 73.6669 87.8642 73.6669C87.3384 73.6393 87.3384 74.4677 87.8642 74.4953C87.9195 74.4953 87.9472 74.4953 88.0025 74.4953C88.1962 74.4953 88.3623 74.3573 88.3899 74.1916C88.5836 73.5012 88.1132 73.087 87.7535 72.5347C87.0617 71.513 86.3976 70.4636 85.6782 69.4695C84.931 68.4478 83.9626 67.4537 82.579 67.5917C81.2508 67.7298 80.4483 68.7516 80.0332 69.939C79.3415 71.8996 79.2861 74.1364 78.9817 76.1798C78.9264 76.7045 79.7289 76.9254 79.8119 76.4007Z" fill="black"/>
<path d="M81.1124 73.2804C81.8595 74.744 83.1048 76.2352 84.8757 76.3456C86.3423 76.4561 87.7258 75.6276 88.1132 74.1917C88.2516 73.667 87.4491 73.4461 87.3108 73.9708C86.951 75.2963 85.4845 75.7933 84.2669 75.3791C83.1048 74.9649 82.3576 73.9432 81.8319 72.8938C81.5828 72.3967 80.8634 72.811 81.1124 73.2804Z" fill="black"/>
<path d="M82.1363 67.8956C82.2746 66.5425 83.8242 66.1835 84.8757 66.5425C85.9826 66.9015 86.8404 67.8956 87.6151 68.6964C88.2239 69.3316 89.4138 70.2152 89.5798 71.0989C89.8012 72.2863 88.3069 73.0871 87.3108 73.3909C86.8127 73.5289 87.0064 74.3298 87.5321 74.1917C88.7497 73.8327 90.5206 72.7557 90.7143 71.3198C90.7973 70.7399 90.4376 70.4361 90.0502 70.0219C89.2754 69.1935 88.5283 68.3927 87.7258 67.5919C86.6467 66.4873 85.2631 65.2999 83.6028 65.576C82.3576 65.7693 81.4445 66.5977 81.3061 67.868C81.2508 68.4203 82.0809 68.4203 82.1363 67.8956Z" fill="black"/>
<path d="M83.6305 65.8521C84.0179 65.4103 84.2115 64.8304 84.5713 64.3886C85.4567 63.284 86.8403 64.3057 87.7535 64.9685C89.5244 66.2111 91.4061 68.4755 89.8011 70.6294C89.4968 71.0712 90.2162 71.4854 90.5206 71.0436C92.2362 68.724 90.5482 66.0454 88.5836 64.5542C87.6704 63.8639 86.2869 62.6212 85.0417 62.9802C83.9348 63.284 83.7411 64.5542 83.0493 65.2998C82.6896 65.6588 83.2707 66.2387 83.6305 65.8521Z" fill="black"/>
<path d="M86.4252 63.3391C87.3937 62.1517 88.6666 60.9091 90.1608 62.1517C91.157 62.9525 91.7934 64.0847 92.1532 65.2721C92.3192 65.7692 93.094 65.5759 92.9556 65.0512C92.4852 63.4496 91.406 61.5994 89.8011 60.9367C88.1685 60.2739 86.8126 61.5718 85.8441 62.7592C85.5121 63.1458 86.0932 63.7533 86.4252 63.3391Z" fill="black"/>
<path d="M92.5406 63.4496C94.2562 61.986 95.9718 60.5225 97.6874 59.0865C98.1024 58.7276 97.4937 58.1476 97.1063 58.5066C95.3907 59.9702 93.6751 61.4338 91.9595 62.8697C91.5444 63.2287 92.1532 63.8086 92.5406 63.4496Z" fill="black"/>
<path d="M98.656 66.9842C100.289 65.7968 101.866 64.5266 103.332 63.1459C103.72 62.7869 103.139 62.207 102.751 62.566C101.312 63.8914 99.8182 65.1341 98.2409 66.2663C97.7982 66.57 98.2132 67.288 98.656 66.9842Z" fill="black"/>
<path d="M111.08 64.9132C120.311 64.9132 127.794 57.4457 127.794 48.2341C127.794 39.0225 120.311 31.5551 111.08 31.5551C101.85 31.5551 94.3669 39.0225 94.3669 48.2341C94.3669 57.4457 101.85 64.9132 111.08 64.9132Z" stroke="black" stroke-width="3" stroke-miterlimit="10"/>
<path d="M100.953 50.2776C107.096 46.3563 113.377 42.656 119.797 39.1766C120.267 38.9281 119.852 38.2101 119.382 38.4586C112.962 41.9104 106.681 45.6108 100.538 49.5596C100.095 49.8634 100.51 50.5813 100.953 50.2776Z" fill="black"/>
<path d="M101.644 57.5125C106.708 53.8122 111.827 50.25 117.057 46.7706C117.5 46.4668 117.085 45.7488 116.642 46.0526C111.44 49.532 106.293 53.1219 101.229 56.7946C100.787 57.0983 101.202 57.8163 101.644 57.5125Z" fill="black"/>
</svg>
