<?xml version="1.0" encoding="iso-8859-1"?>
<!-- Generator: Adobe Illustrator 19.0.0, SVG Export Plug-In . SVG Version: 6.00 Build 0)  -->
<svg version="1.1" id="Layer_1" xmlns="http://www.w3.org/2000/svg" xmlns:xlink="http://www.w3.org/1999/xlink" x="0px" y="0px"
	 viewBox="0 0 512 512" style="enable-background:new 0 0 512 512;" xml:space="preserve">
<g>
	<g>
		<path d="M423.059,45.755h-97.156C321.093,19.757,298.267,0,270.897,0h-29.794c-27.37,0-50.196,19.757-55.006,45.755H88.941
			c-5.633,0-10.199,4.567-10.199,10.199v62.781c0,5.632,4.566,10.199,10.199,10.199h13.21v372.867
			c0,5.632,4.566,10.199,10.199,10.199H399.65c5.633,0,10.199-4.567,10.199-10.199V128.934h13.21
			c5.633,0,10.199-4.567,10.199-10.199V55.954C433.258,50.322,428.692,45.755,423.059,45.755z M241.103,20.398h29.794
			c16.063,0,29.672,10.706,34.065,25.356h-97.926C211.432,31.104,225.04,20.398,241.103,20.398z M389.45,491.602H122.55V128.934
			H389.45V491.602z M412.861,108.536H99.14V66.153h313.72V108.536z"/>
	</g>
</g>
<g>
	<g>
		<path d="M256,151.099c-17.359,0-31.481,14.122-31.481,31.48v255.378c0,17.358,14.122,31.481,31.481,31.481
			s31.481-14.123,31.481-31.481V182.579C287.481,165.22,273.359,151.099,256,151.099z M267.082,437.957
			c0,6.11-4.972,11.082-11.082,11.082c-6.11,0-11.082-4.972-11.082-11.082V182.579c0-6.11,4.972-11.081,11.082-11.081
			c6.11,0,11.082,4.971,11.082,11.081V437.957z"/>
	</g>
</g>
<g>
	<g>
		<path d="M171.938,151.099c-17.359,0-31.481,14.122-31.481,31.48v255.378c0,17.358,14.123,31.481,31.481,31.481
			c17.359,0,31.481-14.123,31.481-31.481V182.579C203.419,165.22,189.297,151.099,171.938,151.099z M183.021,437.957
			c0,6.11-4.972,11.082-11.082,11.082s-11.082-4.972-11.082-11.082V182.579c0-6.11,4.972-11.081,11.082-11.081
			s11.082,4.971,11.082,11.081V437.957z"/>
	</g>
</g>
<g>
	<g>
		<path d="M340.062,151.099c-17.359,0-31.481,14.122-31.481,31.48v255.378c0,17.358,14.122,31.481,31.481,31.481
			c17.359,0,31.481-14.123,31.481-31.481V182.579C371.543,165.22,357.421,151.099,340.062,151.099z M351.144,437.957
			c0,6.11-4.972,11.082-11.082,11.082s-11.082-4.972-11.082-11.082V182.579c0-6.11,4.972-11.081,11.082-11.081
			s11.082,4.971,11.082,11.081V437.957z"/>
	</g>
</g>
<g>
	<g>
		<path d="M218.758,79.806H118.735c-5.633,0-10.199,4.567-10.199,10.199c0,5.632,4.566,10.199,10.199,10.199h100.023
			c5.633,0,10.199-4.567,10.199-10.199C228.957,84.373,224.391,79.806,218.758,79.806z"/>
	</g>
</g>
<g>
	<g>
		<path d="M259.192,79.806h-5.32c-5.633,0-10.199,4.567-10.199,10.199c0,5.632,4.566,10.199,10.199,10.199h5.32
			c5.633,0,10.199-4.567,10.199-10.199C269.392,84.373,264.825,79.806,259.192,79.806z"/>
	</g>
</g>
<g>
</g>
<g>
</g>
<g>
</g>
<g>
</g>
<g>
</g>
<g>
</g>
<g>
</g>
<g>
</g>
<g>
</g>
<g>
</g>
<g>
</g>
<g>
</g>
<g>
</g>
<g>
</g>
<g>
</g>
</svg>
